<?xml version="1.0" encoding="utf-8"?>
<!-- Generator: Adobe Illustrator 21.1.0, SVG Export Plug-In . SVG Version: 6.00 Build 0)  -->
<svg version="1.1" id="Layer_1" xmlns="http://www.w3.org/2000/svg" xmlns:xlink="http://www.w3.org/1999/xlink" x="0px" y="0px"
	 viewBox="0 0 1400 980" style="enable-background:new 0 0 1400 980;" xml:space="preserve">
<style type="text/css">
	.st0{fill:#A1C983;}
	.st1{fill:#506850;}
	.st2{fill:#9B6975;}
	.st3{fill:#B1D376;}
	.st4{fill:#5E7C4A;}
	.st5{fill:#9FC862;}
	.st6{fill:#DAC7C1;}
	.st7{fill:#CE8C7A;}
	.st8{fill:#DD7154;}
	.st9{fill:#F3E6C3;}
	.st10{fill:#A54A51;}
	.st11{fill:#E77E61;}
	.st12{fill:#DBCDAF;}
	.st13{fill:#9D6B77;}
	.st14{fill:#FFFFFF;}
	.st15{fill:#E2A996;}
	.st16{fill:#C9E2C2;}
	.st17{fill:#845A66;}
</style>
<g id="background">
</g>
<g id="object">
	<g>
		<polygon class="st0" points="730.7,815.5 586.3,907.9 85.6,618.8 727.3,286.4 1167.9,539.6 1120.1,571.4 998,502 786.3,593.9 
			643.4,765.1 		"/>
		<polygon class="st1" points="85.6,618.8 317.3,752.6 600.9,829.2 584.9,724 747.9,640 786.3,593.9 998,502 1052.6,533 
			1071.8,529.5 1070.3,483.5 983.8,451.4 978.3,432.8 968.4,425 727.3,286.4 		"/>
		<g>
			<path class="st2" d="M344.9,601.8L334.1,519l-12.7-7.3l-12.3,7.1L298,601.7c-0.8,6.2,2.2,12.4,7.6,15.5l8,4.6
				c4.8,2.8,10.7,2.8,15.5,0l8.1-4.7C342.7,614.1,345.7,608,344.9,601.8z"/>
			<polygon class="st3" points="263.6,215.9 321.4,182.5 379.2,215.9 321.4,249.2 			"/>
			<polygon class="st4" points="205.8,516.2 263.6,215.9 321.4,249.2 321.4,582.9 			"/>
			<polygon class="st5" points="379.2,215.9 321.4,249.2 321.4,582.9 437,516.2 			"/>
		</g>
		<g>
			<path class="st2" d="M802,344l-6.3-48.1l-7.4-4.3l-7.2,4.1l-6.5,48.2c-0.5,3.6,1.3,7.2,4.4,9l4.7,2.7c2.8,1.6,6.2,1.6,9,0
				l4.7-2.7C800.7,351.2,802.5,347.6,802,344z"/>
			<polygon class="st3" points="754.7,119.5 788.3,100.1 821.9,119.5 788.3,138.9 			"/>
			<polygon class="st4" points="721.1,294.2 754.7,119.5 788.3,138.9 788.3,333.1 			"/>
			<polygon class="st5" points="821.9,119.5 788.3,138.9 788.3,333.1 855.6,294.2 			"/>
		</g>
		<g>
			<path class="st2" d="M898,401.9l-6.3-48.1l-7.4-4.3l-7.2,4.1l-6.5,48.2c-0.5,3.6,1.3,7.2,4.4,9l4.7,2.7c2.8,1.6,6.2,1.6,9,0
				l4.7-2.7C896.7,409.1,898.5,405.6,898,401.9z"/>
			<polygon class="st3" points="850.7,177.4 884.3,158 917.9,177.4 884.3,196.8 			"/>
			<polygon class="st4" points="817.1,352.1 850.7,177.4 884.3,196.8 884.3,391 			"/>
			<polygon class="st5" points="917.9,177.4 884.3,196.8 884.3,391 951.6,352.1 			"/>
		</g>
		<g>
			<path class="st2" d="M994,459.9l-6.3-48.1l-7.4-4.3l-7.2,4.1l-6.5,48.2c-0.5,3.6,1.3,7.2,4.4,9l4.7,2.7c2.8,1.6,6.2,1.6,9,0
				l4.7-2.7C992.7,467,994.4,463.5,994,459.9z"/>
			<polygon class="st3" points="946.7,235.3 980.3,215.9 1013.9,235.3 980.3,254.8 			"/>
			<polygon class="st4" points="913.1,410.1 946.7,235.3 980.3,254.8 980.3,448.9 			"/>
			<polygon class="st5" points="1013.9,235.3 980.3,254.8 980.3,448.9 1047.6,410.1 			"/>
		</g>
		<g>
			<path class="st2" d="M1090,517.8l-6.3-48.1l-7.4-4.3l-7.2,4.1l-6.5,48.2c-0.5,3.6,1.3,7.2,4.4,9l4.7,2.7c2.8,1.6,6.2,1.6,9,0
				l4.7-2.7C1088.7,524.9,1090.4,521.4,1090,517.8z"/>
			<polygon class="st3" points="1042.7,293.3 1076.3,273.9 1109.9,293.3 1076.3,312.7 			"/>
			<polygon class="st4" points="1009.1,468 1042.7,293.3 1076.3,312.7 1076.3,506.8 			"/>
			<polygon class="st5" points="1109.9,293.3 1076.3,312.7 1076.3,506.8 1143.6,468 			"/>
		</g>
		<polygon class="st2" points="744.3,414.2 896.5,502 896.5,326.3 744.3,238.4 		"/>
		<polygon class="st6" points="795,619.2 795,326.3 896.5,267.7 998,326.3 998,502 		"/>
		<polygon class="st7" points="890.5,329.5 998,377.3 998,326.3 899,269.1 		"/>
		<g>
			<polygon class="st8" points="965.4,407.1 838.3,480.8 838.3,597.4 965.4,523.7 			"/>
			<polygon class="st9" points="959.8,416.8 843.9,484.1 843.9,594.1 959.8,526.9 			"/>
			<polygon class="st10" points="838.3,597.4 835.2,595.8 835.2,479.2 838.3,480.8 			"/>
			<polygon class="st11" points="965.4,407.1 962.3,405.5 835.2,479.2 838.3,480.8 			"/>
			<polygon class="st8" points="959.8,416.8 959.8,410.5 843.9,477.6 843.9,484.1 			"/>
			<g>
				<polygon class="st12" points="890.5,457 888.5,458.2 888.5,568.3 890.5,567.1 				"/>
				<polygon class="st12" points="878.1,464.2 876.1,465.4 876.1,575.4 878.1,574.3 				"/>
				<polygon class="st12" points="865.7,471.4 863.7,472.5 863.7,582.6 865.7,581.4 				"/>
				<polygon class="st12" points="851.4,589.8 853.4,588.6 853.4,478.6 851.4,479.7 				"/>
				<polygon class="st12" points="927.6,435.5 925.6,436.7 925.6,546.8 927.6,545.6 				"/>
				<polygon class="st12" points="952.3,421.2 950.3,422.3 950.3,532.4 952.3,531.3 				"/>
				<polygon class="st12" points="939.9,428.4 937.9,429.5 937.9,539.6 939.9,538.4 				"/>
				<polygon class="st12" points="902.8,449.9 900.8,451 900.8,561.1 902.8,559.9 				"/>
				<polygon class="st12" points="915.2,442.7 913.2,443.9 913.2,553.9 915.2,552.8 				"/>
			</g>
		</g>
		<polygon class="st2" points="589.1,502 795,619.2 795,443.5 589.1,326.3 		"/>
		<polygon class="st8" points="675.3,141.9 937.9,291.8 813.8,506.9 551.1,356.9 		"/>
		<polygon class="st13" points="937.9,291.8 937.9,309.7 817.1,517.7 813.8,506.9 		"/>
		<polygon class="st13" points="937.9,291.8 1072.2,370.2 1072.2,383.8 937.9,309.7 		"/>
		<polygon class="st13" points="551.1,356.9 813.8,506.9 817.1,517.7 551.1,367.1 		"/>
		<polygon class="st2" points="592.7,442.9 744.9,530.7 744.9,355 592.7,267.1 		"/>
		<polygon class="st14" points="389.7,618.6 389.7,325.7 491.2,149.9 592.7,208.5 592.7,501.4 		"/>
		<polygon class="st15" points="643.4,765.1 643.4,472.2 744.9,296.4 846.4,355 846.4,647.9 		"/>
		<polygon class="st7" points="749.5,366.5 846.4,410.9 846.4,355 809.5,333.6 769.4,320.5 		"/>
		<polygon class="st7" points="389.7,618.6 643.4,765.1 643.4,472.2 389.7,325.7 		"/>
		<g>
			<polygon class="st8" points="415.8,396.9 452.4,418 452.4,494 415.8,472.9 			"/>
			<polygon class="st16" points="419.5,403.2 448.7,420.1 448.7,487.7 419.5,470.8 			"/>
			<polygon class="st11" points="452.4,494 454.4,492.9 454.4,417 452.4,418 			"/>
			<polygon class="st10" points="415.8,396.9 417.8,395.8 454.4,417 452.4,418 			"/>
			<polygon class="st8" points="419.5,403.2 419.5,399.1 448.7,415.9 448.7,420.1 			"/>
			<polygon class="st8" points="419.5,428.5 419.5,424.3 448.7,441.1 448.7,445.4 			"/>
			<polygon class="st8" points="419.5,453.7 419.5,449.6 448.7,466.4 448.7,470.6 			"/>
		</g>
		<g>
			<polygon class="st8" points="466.5,426.5 503.1,447.6 503.1,523.6 466.5,502.5 			"/>
			<polygon class="st16" points="470.2,432.8 499.4,449.7 499.4,517.3 470.2,500.4 			"/>
			<polygon class="st11" points="503.1,523.6 505.1,522.5 505.1,446.6 503.1,447.6 			"/>
			<polygon class="st10" points="466.5,426.5 468.6,425.4 505.1,446.6 503.1,447.6 			"/>
			<polygon class="st8" points="470.2,432.8 470.2,428.7 499.4,445.5 499.4,449.7 			"/>
			<polygon class="st8" points="470.2,458.1 470.2,453.9 499.4,470.7 499.4,475 			"/>
			<polygon class="st8" points="470.2,483.3 470.2,479.2 499.4,496 499.4,500.2 			"/>
		</g>
		<g>
			<polygon class="st8" points="517.3,456.1 553.8,477.2 553.8,553.2 517.3,532.1 			"/>
			<polygon class="st16" points="520.9,462.4 550.2,479.3 550.2,546.9 520.9,530 			"/>
			<polygon class="st11" points="553.8,553.2 555.9,552.1 555.9,476.2 553.8,477.2 			"/>
			<polygon class="st10" points="517.3,456.1 519.3,455 555.9,476.2 553.8,477.2 			"/>
			<polygon class="st8" points="520.9,462.4 520.9,458.3 550.2,475.1 550.2,479.3 			"/>
			<polygon class="st8" points="520.9,487.7 520.9,483.5 550.2,500.3 550.2,504.6 			"/>
			<polygon class="st8" points="520.9,512.9 520.9,508.8 550.2,525.6 550.2,529.8 			"/>
		</g>
		<g>
			<polygon class="st8" points="568,485.7 604.6,506.8 604.6,582.8 568,561.7 			"/>
			<polygon class="st16" points="571.7,492 600.9,508.9 600.9,576.5 571.7,559.6 			"/>
			<polygon class="st11" points="604.6,582.8 606.6,581.7 606.6,505.8 604.6,506.8 			"/>
			<polygon class="st10" points="568,485.7 570,484.6 606.6,505.8 604.6,506.8 			"/>
			<polygon class="st8" points="571.7,492 571.7,487.9 600.9,504.7 600.9,508.9 			"/>
			<polygon class="st8" points="571.7,517.3 571.7,513.1 600.9,529.9 600.9,534.2 			"/>
			<polygon class="st8" points="571.7,542.5 571.7,538.4 600.9,555.2 600.9,559.4 			"/>
		</g>
		<g>
			<polygon class="st8" points="466.5,539.6 503.1,560.7 503.1,636.7 466.5,615.5 			"/>
			<polygon class="st16" points="470.2,545.9 499.4,562.8 499.4,630.3 470.2,613.4 			"/>
			<polygon class="st11" points="503.1,636.7 505.1,635.6 505.1,559.6 503.1,560.7 			"/>
			<polygon class="st10" points="466.5,539.6 468.6,538.5 505.1,559.6 503.1,560.7 			"/>
			<polygon class="st8" points="470.2,545.9 470.2,541.8 499.4,558.6 499.4,562.8 			"/>
			<polygon class="st8" points="470.2,571.1 470.2,567 499.4,583.8 499.4,588 			"/>
			<polygon class="st8" points="470.2,596.4 470.2,592.3 499.4,609.1 499.4,613.3 			"/>
		</g>
		<g>
			<polygon class="st8" points="824.9,497.9 788.3,519 788.3,595 824.9,573.9 			"/>
			<polygon class="st16" points="821.2,504.2 792,521.1 792,588.6 821.2,571.8 			"/>
			<polygon class="st10" points="788.3,595 786.3,593.9 786.3,517.9 788.3,519 			"/>
			<polygon class="st11" points="824.9,497.9 822.9,496.8 786.3,517.9 788.3,519 			"/>
			<polygon class="st8" points="821.2,504.2 821.2,500.1 792,516.9 792,521.1 			"/>
			<polygon class="st8" points="821.2,529.5 821.2,525.3 792,542.1 792,546.3 			"/>
			<polygon class="st8" points="821.2,554.7 821.2,550.6 792,567.4 792,571.6 			"/>
		</g>
		<g>
			<polygon class="st8" points="740,585.7 678.3,621.3 678.3,749.6 740,714 			"/>
			<polygon class="st16" points="733.8,596.4 684.4,624.9 684.4,738.9 733.8,710.4 			"/>
			<polygon class="st10" points="678.3,749.6 674.9,747.8 674.9,619.5 678.3,621.3 			"/>
			<polygon class="st11" points="740,585.7 736.6,583.9 674.9,619.5 678.3,621.3 			"/>
			<polygon class="st8" points="733.8,596.4 733.8,589.4 684.4,617.8 684.4,624.9 			"/>
			<polygon class="st8" points="733.8,710.4 733.8,632 684.4,660.4 684.4,738.9 			"/>
		</g>
		<g>
			<polygon class="st8" points="517.3,569.2 553.8,590.3 553.8,666.3 517.3,645.1 			"/>
			<polygon class="st16" points="520.9,575.5 550.2,592.4 550.2,659.9 520.9,643 			"/>
			<polygon class="st11" points="553.8,666.3 555.9,665.2 555.9,589.2 553.8,590.3 			"/>
			<polygon class="st10" points="517.3,569.2 519.3,568.1 555.9,589.2 553.8,590.3 			"/>
			<polygon class="st8" points="520.9,575.5 520.9,571.4 550.2,588.2 550.2,592.4 			"/>
			<polygon class="st8" points="520.9,600.7 520.9,596.6 550.2,613.4 550.2,617.6 			"/>
			<polygon class="st8" points="520.9,626 520.9,621.9 550.2,638.7 550.2,642.9 			"/>
		</g>
		<g>
			<polygon class="st8" points="568,598.8 604.6,619.9 604.6,695.9 568,674.7 			"/>
			<polygon class="st16" points="571.7,605.1 600.9,622 600.9,689.5 571.7,672.6 			"/>
			<polygon class="st11" points="604.6,695.9 606.6,694.8 606.6,618.8 604.6,619.9 			"/>
			<polygon class="st10" points="568,598.8 570,597.7 606.6,618.8 604.6,619.9 			"/>
			<polygon class="st8" points="571.7,605.1 571.7,601 600.9,617.8 600.9,622 			"/>
			<polygon class="st8" points="571.7,630.3 571.7,626.2 600.9,643 600.9,647.2 			"/>
			<polygon class="st8" points="571.7,655.6 571.7,651.5 600.9,668.3 600.9,672.5 			"/>
		</g>
		<polygon class="st11" points="475.9,141.3 786.3,320.3 662.1,535.6 351.7,356.3 		"/>
		<polygon class="st13" points="786.3,320.3 786.3,338.4 665.4,546.4 662.1,535.6 		"/>
		<polygon class="st13" points="786.3,320.3 920.6,395.8 920.6,412.5 786.3,338.4 		"/>
		<polygon class="st17" points="351.7,356.3 662.1,535.6 665.4,546.4 351.7,366.5 		"/>
		<g>
			<path class="st2" d="M618.2,813.5l-7.6-58.4l-8.9-5.2l-8.7,5l-7.8,58.5c-0.6,4.4,1.5,8.7,5.4,11l5.7,3.3c3.4,2,7.6,2,11,0
				l5.7-3.3C616.6,822.2,618.7,817.9,618.2,813.5z"/>
			<polygon class="st3" points="560.8,541 601.6,517.4 642.4,541 601.6,564.6 			"/>
			<polygon class="st4" points="519.9,753.1 560.8,541 601.6,564.6 601.6,800.2 			"/>
			<polygon class="st5" points="642.4,541 601.6,564.6 601.6,800.2 683.2,753.1 			"/>
		</g>
	</g>
</g>
<g id="text">
</g>
</svg>
